# xmcd
#
# Track frame offsets: 
#        150
#        9395
#        20045
#        30163
#        40982
#        51689
#        64995
#        79246
#        89250
#        98253
#        107427
#        116599
#
# Disc length: 1692 seconds
#
# Revision: 0
# Processed by: cddbd v1.5.2PL0 Copyright (c) Steve Scherf et al.
# Submitted via: ExactAudioCopy v0.99pb4
#
DISCID=8e069a0c
DTITLE=Waylon Jennings - Heartaches By The Number
DYEAR=1972
DGENRE=Country
TTITLE0=Heartaches By The Number
TTITLE1=Tiger By The Tail
TTITLE2=Foolin' Round
TTITLE3=(That's What You Get) For Loving Me
TTITLE4=You're Gonna Wonder About Me
TTITLE5=Singer Of Sad Songs
TTITLE6=Folsom Prison Blues
TTITLE7=Busted
TTITLE8=Time To Bum Again
TTITLE9=Leavin Town
TTITLE10=Brown Eyed Handsome Man
TTITLE11=Only Daddy That'll Walk The Line
EXTD=
EXTT0=
EXTT1=
EXTT2=
EXTT3=
EXTT4=
EXTT5=
EXTT6=
EXTT7=
EXTT8=
EXTT9=
EXTT10=
EXTT11=
PLAYORDER=
